<svg width="418" height="181" viewBox="0 0 418 181" fill="none" xmlns="http://www.w3.org/2000/svg">
<g filter="url(#filter0_f_43_35)">
<path d="M61.56 152V173H8.04V89H31.44V118.4H58.44V138.68H31.44V152H61.56ZM72.5822 89H96.1022V173H72.5822V89ZM146.869 173H111.109V89H134.269V112.16H146.869C164.749 112.16 178.069 125 178.069 142.64C178.069 160.16 164.749 173 146.869 173ZM144.109 132.32H134.269V152.72H144.109C150.229 152.72 154.189 148.52 154.189 142.52C154.189 136.52 150.229 132.32 144.109 132.32ZM225.892 133.88V119.24H246.772C244.132 112.76 236.572 108.44 227.692 108.44C214.972 108.44 206.692 117.56 206.692 130.88C206.692 144.32 215.092 153.44 227.692 153.44C236.212 153.44 243.772 148.88 246.772 141.8H271.132C267.533 161.24 249.532 175.04 227.452 175.04C201.652 175.04 182.932 156.44 182.932 130.88C182.932 105.32 202.012 86.84 227.692 86.84C253.972 86.84 271.973 106.4 271.973 133.88H225.892ZM305.421 109.04V121.64H333.021V140.6H305.421V152.96H336.141V173H282.381V89H337.221V109.04H305.421ZM412.267 173H343.387V152.12H366.187V89H389.467V152.12H412.267V173Z" fill="#5E5E5E"/>
</g>
<path d="M61.56 24V2.99999H8.04V87H31.44V57.6H58.44V37.32H31.44V24H61.56ZM72.5822 87H96.1022V2.99999H72.5822V87ZM146.869 2.99999H111.109V87H134.269V63.84H146.869C164.749 63.84 178.069 51 178.069 33.36C178.069 15.84 164.749 2.99999 146.869 2.99999ZM144.109 43.68H134.269V23.28H144.109C150.229 23.28 154.189 27.48 154.189 33.48C154.189 39.48 150.229 43.68 144.109 43.68ZM225.892 42.12V56.76H246.772C244.132 63.24 236.572 67.56 227.692 67.56C214.972 67.56 206.692 58.44 206.692 45.12C206.692 31.68 215.092 22.56 227.692 22.56C236.212 22.56 243.772 27.12 246.772 34.2H271.132C267.533 14.76 249.532 0.959999 227.452 0.959999C201.652 0.959999 182.932 19.56 182.932 45.12C182.932 70.68 202.012 89.16 227.692 89.16C253.972 89.16 271.973 69.6 271.973 42.12H225.892ZM305.421 66.96V54.36H333.021V35.4H305.421V23.04H336.141V2.99999H282.381V87H337.221V66.96H305.421ZM412.267 2.99999H343.387V23.88H366.187V87H389.467V23.88H412.267V2.99999Z" fill="white"/>
<defs>
<filter id="filter0_f_43_35" x="3.03998" y="81.84" width="414.227" height="98.2001" filterUnits="userSpaceOnUse" color-interpolation-filters="sRGB">
<feFlood flood-opacity="0" result="BackgroundImageFix"/>
<feBlend mode="normal" in="SourceGraphic" in2="BackgroundImageFix" result="shape"/>
<feGaussianBlur stdDeviation="2.5" result="effect1_foregroundBlur_43_35"/>
</filter>
</defs>
</svg>
