<svg width="117" height="25" viewBox="0 0 117 25" fill="none" xmlns="http://www.w3.org/2000/svg">
<path d="M13.338 10.35V5.8H1.742V24H6.812V17.63H12.662V13.236H6.812V10.35H13.338ZM15.9861 24H21.0821V5.8H15.9861V24ZM32.3416 5.8H24.5936V24H29.6116V18.982H32.3416C36.2156 18.982 39.1016 16.2 39.1016 12.378C39.1016 8.582 36.2156 5.8 32.3416 5.8ZM31.7436 14.614H29.6116V10.194H31.7436C33.0696 10.194 33.9276 11.104 33.9276 12.404C33.9276 13.704 33.0696 14.614 31.7436 14.614ZM49.7234 14.276V17.448H54.2474C53.6754 18.852 52.0374 19.788 50.1134 19.788C47.3574 19.788 45.5634 17.812 45.5634 14.926C45.5634 12.014 47.3834 10.038 50.1134 10.038C51.9594 10.038 53.5974 11.026 54.2474 12.56H59.5254C58.7454 8.348 54.8454 5.358 50.0614 5.358C44.4714 5.358 40.4154 9.388 40.4154 14.926C40.4154 20.464 44.5494 24.468 50.1134 24.468C55.8074 24.468 59.7074 20.23 59.7074 14.276H49.7234ZM67.2145 19.658V16.928H73.1945V12.82H67.2145V10.142H73.8705V5.8H62.2225V24H74.1045V19.658H67.2145ZM90.6244 5.8H75.7004V10.324H80.6404V24H85.6844V10.324H90.6244V5.8ZM97.783 5.462C94.481 5.462 92.037 7.88 92.037 11.182C92.037 14.458 94.481 16.928 97.783 16.928C101.085 16.928 103.503 14.484 103.503 11.182C103.503 7.88 101.085 5.462 97.783 5.462ZM97.783 15.186C95.495 15.186 93.779 13.496 93.779 11.182C93.779 8.894 95.443 7.204 97.783 7.204C100.071 7.204 101.735 8.894 101.735 11.182C101.735 13.496 100.071 15.186 97.783 15.186ZM100.201 10.48C100.201 9.31 99.395 8.478 98.225 8.478H95.625V13.808H97.315V12.352H97.783L98.563 13.808H100.357L99.395 12.014C99.889 11.702 100.201 11.156 100.201 10.48ZM97.315 9.934H97.913C98.303 9.934 98.485 10.142 98.485 10.428C98.485 10.74 98.303 10.948 97.913 10.948H97.315V9.934Z" fill="white"/>
</svg>
