<svg width="16" height="15" viewBox="0 0 16 15" fill="none" xmlns="http://www.w3.org/2000/svg">
<path d="M7.23893 14.1656C3.24869 14.1656 0 10.987 0 7.08279C0 3.17862 3.24869 0 7.23893 0C11.2292 0 14.4779 3.17862 14.4779 7.08279C14.4779 10.987 11.2292 14.1656 7.23893 14.1656ZM7.23893 1.03651C3.82781 1.03651 1.05936 3.75215 1.05936 7.08279C1.05936 10.4134 3.82781 13.1291 7.23893 13.1291C10.6501 13.1291 13.4185 10.4134 13.4185 7.08279C13.4185 3.75215 10.6501 1.03651 7.23893 1.03651Z" fill="white"/>
<path d="M14.6547 14.8565C14.5206 14.8565 14.3864 14.8081 14.2804 14.7045L12.868 13.3225C12.6632 13.1221 12.6632 12.7904 12.868 12.59C13.0728 12.3896 13.4118 12.3896 13.6166 12.59L15.029 13.972C15.2339 14.1724 15.2339 14.5041 15.029 14.7045C14.9231 14.8081 14.7889 14.8565 14.6547 14.8565Z" fill="white"/>
</svg>
